HIERARCHY
ROOT Hips
{
	OFFSET 0.000000 0.000000 0.000000
	CHANNELS 6 Xposition Yposition Zposition Xrotation Yrotation Zrotation
	JOINT LeftUpLeg_virtual
	{
		OFFSET 0.000000 0.000000 0.000000
		CHANNELS 3 Xrotation Yrotation Zrotation
		JOINT LeftUpLeg
		{
			OFFSET 10.205400 -3.823500 0.155100
			CHANNELS 3 Xrotation Yrotation Zrotation
			JOINT LeftLeg
			{
				OFFSET 0.708757 -12.982077 0.567790
				CHANNELS 3 Xrotation Yrotation Zrotation
				JOINT LeftFoot
				{
					OFFSET -0.708756 -10.717838 -2.184338
					CHANNELS 3 Xrotation Yrotation Zrotation
					JOINT LeftToeBase
					{
						OFFSET 0.108149 -7.191104 7.560241
						CHANNELS 3 Xrotation Yrotation Zrotation
						JOINT LeftToe_End
						{
							OFFSET 0.070230 0.081724 4.490308
							CHANNELS 3 Xrotation Yrotation Zrotation
							End Site
							{
								OFFSET 0 0 0
							}
						}
					}
				}
			}
		}
	}
	JOINT RightUpLeg_virtual
	{
		OFFSET 0.000000 0.000000 0.000000
		CHANNELS 3 Xrotation Yrotation Zrotation
		JOINT RightUpLeg
		{
			OFFSET -10.205400 -3.823500 0.005500
			CHANNELS 3 Xrotation Yrotation Zrotation
			JOINT RightLeg
			{
				OFFSET -0.708756 -12.982134 0.610632
				CHANNELS 3 Xrotation Yrotation Zrotation
				JOINT RightFoot
				{
					OFFSET 0.708754 -10.717769 -1.945823
					CHANNELS 3 Xrotation Yrotation Zrotation
					JOINT RightToeBase
					{
						OFFSET -0.108140 -7.191069 7.372968
						CHANNELS 3 Xrotation Yrotation Zrotation
						JOINT RightToe_End
						{
							OFFSET -0.070227 0.081735 4.479403
							CHANNELS 3 Xrotation Yrotation Zrotation
							End Site
							{
								OFFSET 0 0 0
							}
						}
					}
				}
			}
		}
	}
	JOINT Spine_virtual
	{
		OFFSET 0.000000 0.000000 0.000000
		CHANNELS 3 Xrotation Yrotation Zrotation
		JOINT Spine
		{
			OFFSET 0.000000 6.876099 0.125700
			CHANNELS 3 Xrotation Yrotation Zrotation
			JOINT Spine1
			{
				OFFSET 0.000000 5.730043 0.104720
				CHANNELS 3 Xrotation Yrotation Zrotation
				JOINT Spine1_split
				{
					OFFSET 0.000000 5.730043 0.104720
					CHANNELS 3 Xrotation Yrotation Zrotation
					JOINT Spine2
					{
						OFFSET 0.000000 5.730043 0.104720
						CHANNELS 3 Xrotation Yrotation Zrotation
						JOINT Neck_virtual
						{
							OFFSET 0.000000 0.000000 0.000000
							CHANNELS 3 Xrotation Yrotation Zrotation
							JOINT Neck
							{
								OFFSET 0.000000 10.314075 0.188496
								CHANNELS 3 Xrotation Yrotation Zrotation
								JOINT Head
								{
									OFFSET 0.000000 7.643700 -2.377400
									CHANNELS 3 Xrotation Yrotation Zrotation
									JOINT HeadTop_End
									{
										OFFSET 0.000000 43.788605 -13.619600
										CHANNELS 3 Xrotation Yrotation Zrotation
										End Site
										{
											OFFSET 0 0 0
										}
									}
								}
							}
						}
						JOINT LeftShoulder_virtual
						{
							OFFSET 0.000000 0.000000 0.000000
							CHANNELS 3 Xrotation Yrotation Zrotation
							JOINT LeftShoulder
							{
								OFFSET 2.196100 4.412489 0.087492
								CHANNELS 3 Xrotation Yrotation Zrotation
								JOINT LeftShoulder_split
								{
									OFFSET 2.196100 4.412489 0.087492
									CHANNELS 3 Xrotation Yrotation Zrotation
									JOINT LeftArm
									{
										OFFSET 8.771219 -2.981674 -0.026999
										CHANNELS 3 Xrotation Yrotation Zrotation
										JOINT LeftForeArm
										{
											OFFSET 8.512804 0.000000 -0.000000
											CHANNELS 3 Xrotation Yrotation Zrotation
											JOINT LeftHand
											{
												OFFSET 18.484802 0.000000 -0.000000
												CHANNELS 3 Xrotation Yrotation Zrotation
												End Site
												{
													OFFSET 0 0 0
												}
											}
										}
									}
								}
							}
						}
						JOINT RightShoulder_virtual
						{
							OFFSET 0.000000 0.000000 0.000000
							CHANNELS 3 Xrotation Yrotation Zrotation
							JOINT RightShoulder
							{
								OFFSET -2.196100 4.412496 0.070690
								CHANNELS 3 Xrotation Yrotation Zrotation
								JOINT RightShoulder_split
								{
									OFFSET -2.196100 4.412496 0.070690
									CHANNELS 3 Xrotation Yrotation Zrotation
									JOINT RightArm
									{
										OFFSET -8.771282 -2.981682 -0.094208
										CHANNELS 3 Xrotation Yrotation Zrotation
										JOINT RightForeArm
										{
											OFFSET -8.494598 0.000000 0.000000
											CHANNELS 3 Xrotation Yrotation Zrotation
											JOINT RightHand
											{
												OFFSET -18.483803 0.000000 0.000001
												CHANNELS 3 Xrotation Yrotation Zrotation
												End Site
												{
													OFFSET 0 0 0
												}
											}
										}
									}
								}
							}
						}
					}
				}
			}
		}
	}
}
MOTION
Frames: 9
Frame Time: 0.03333333
1.563425 26.812239 -5.197948 0.000000 0.000000 0.000000 4.521001 -46.635439 5.833548 -50.251983 2.824502 27.510303 52.334672 -14.017125 3.116175 -2.527728 -1.951867 -27.985040 -2.555104 -3.932151 1.648478 0.000000 0.000000 0.000000 3.091993 -44.898583 4.943849 -34.152322 -23.781559 -43.214959 54.075274 26.629837 -7.331142 -26.083941 -21.288211 35.049389 7.044403 10.560037 -23.416165 0.000000 0.000000 0.000000 1.144046 -35.835455 3.835088 10.611820 12.696025 -0.392017 5.746178 -3.051762 -3.332723 0.068637 -0.882963 0.102668 0.000000 0.000000 0.000000 5.922851 0.899858 -2.189212 8.475619 22.974943 8.246597 -25.472437 15.025716 -16.788497 0.000000 0.000000 0.000000 5.120754 -2.138748 -4.112334 2.890297 -10.567984 -17.915748 -1.428168 -4.589398 -2.417447 -28.852792 -39.512019 -12.720423 29.836544 -51.425075 23.859596 0.000000 0.000000 0.000000 3.980625 -1.806772 -2.526410 -1.010671 29.648755 -16.848622 -3.210016 -18.916812 -5.413447 -56.931990 27.917075 26.830545 -70.655390 78.530093 77.033291 0.000000 0.000000 0.000000 
1.578208 26.766598 -5.475288 0.000000 0.000000 0.000000 5.192749 -47.487146 6.795410 -49.970026 3.303376 28.093594 51.687627 -14.134034 2.880414 -2.688884 -0.663701 -28.491828 -1.805489 -3.763096 1.095051 0.000000 0.000000 0.000000 3.774811 -45.214773 5.802252 -35.488724 -22.244307 -42.894828 54.854441 26.344408 -7.375813 -26.442826 -20.363200 34.254348 7.864654 9.888530 -23.888821 0.000000 0.000000 0.000000 1.906258 -36.736528 4.794867 11.278933 13.683020 -1.202503 5.979081 -2.641741 -3.512494 -0.034383 -1.035861 -0.038988 0.000000 0.000000 0.000000 5.487439 1.420244 -2.382896 11.485654 25.475171 4.197182 -25.575748 16.370712 -12.990044 0.000000 0.000000 0.000000 5.770034 -1.977398 -4.317295 2.975626 -11.090805 -18.623720 -2.589430 -4.384283 -2.412076 -34.292560 -43.941257 -17.328306 29.615840 -52.370407 24.510658 0.000000 0.000000 0.000000 4.470088 -1.362443 -2.321315 -0.224978 29.959863 -11.338467 2.187476 -18.754118 -2.842468 -48.388154 33.548530 28.733158 -109.828171 76.227548 112.474651 0.000000 0.000000 0.000000 
1.559697 26.825600 -5.768600 0.000000 0.000000 0.000000 6.122329 -48.487148 7.582935 -49.266499 4.166949 29.290430 50.699036 -14.502394 2.566606 -3.338907 1.080191 -28.890894 -0.837464 -3.630174 0.603122 0.000000 0.000000 0.000000 4.691078 -45.906528 6.493687 -36.560725 -20.218238 -41.833123 54.568444 26.042299 -7.139458 -25.863421 -19.238917 33.591383 8.293608 9.124551 -23.673111 0.000000 0.000000 0.000000 2.962231 -38.231328 5.609056 11.598299 13.802859 -1.996636 6.060801 -2.275815 -3.497709 -0.037850 -1.069056 -0.097399 0.000000 0.000000 0.000000 4.875203 1.776931 -2.445078 13.189427 27.328958 0.360659 -25.348700 18.638335 -11.172469 0.000000 0.000000 0.000000 6.295948 -1.836094 -4.166990 2.949919 -11.616058 -18.806168 -4.041308 -5.058524 -1.915305 -39.235335 -45.539754 -20.862874 28.742819 -53.335677 23.937163 0.000000 0.000000 0.000000 4.864935 -1.011890 -2.097316 0.204853 29.247560 -7.753470 6.084858 -14.978999 0.327212 -38.774345 39.293911 26.217340 -120.786595 73.508360 119.661281 0.000000 0.000000 0.000000 
1.536200 27.027973 -5.987206 0.000000 0.000000 0.000000 7.137072 -49.917666 8.130095 -47.981789 5.515881 30.953714 49.421251 -15.101454 2.194285 -4.132056 3.058079 -29.168176 -0.426963 -3.572590 0.221049 0.000000 0.000000 0.000000 5.780187 -47.250029 6.982119 -37.401074 -17.926018 -40.188987 53.050185 25.797464 -6.553766 -23.863699 -17.785457 33.411458 7.916867 8.385372 -22.792937 0.000000 0.000000 0.000000 4.258367 -40.274989 6.244296 11.571391 13.218438 -2.697880 6.037606 -1.941954 -3.299392 0.035192 -0.961386 -0.062738 0.000000 0.000000 0.000000 4.287579 1.974241 -2.315760 12.866872 28.353399 -2.492559 -25.816571 20.394146 -11.227135 0.000000 0.000000 0.000000 6.662635 -1.668681 -3.608158 2.859365 -11.916321 -18.186371 -5.731475 -6.106642 -1.477982 -42.723728 -44.573289 -21.537692 27.197817 -54.796395 22.224908 0.000000 0.000000 0.000000 5.084973 -0.770020 -1.832570 0.471786 28.069076 -6.262127 6.154525 -10.835394 3.609839 -29.481965 45.599204 20.161912 -114.099451 73.511475 109.586376 0.000000 0.000000 0.000000 
1.537014 27.386868 -6.102821 0.000000 0.000000 0.000000 8.249658 -52.089348 8.492994 -45.998831 7.550004 32.791916 47.856287 -15.726664 1.791130 -5.000405 5.297166 -28.991284 -0.568640 -3.594726 -0.184169 0.000000 0.000000 0.000000 6.868684 -49.589181 7.287096 -37.898292 -15.700383 -38.077109 50.151992 25.502092 -5.541484 -20.784851 -15.997478 33.291770 7.267964 7.644803 -21.400330 0.000000 0.000000 0.000000 5.650474 -42.881307 6.717962 11.271328 12.128841 -3.316007 6.012747 -1.644180 -2.994607 0.133473 -0.730440 -0.012249 0.000000 0.000000 0.000000 3.961236 2.056372 -2.023042 10.552163 28.472292 -3.995440 -27.443009 21.014960 -12.604703 0.000000 0.000000 0.000000 6.845080 -1.433636 -2.797631 2.761035 -11.951946 -16.540666 -7.178994 -6.997913 -0.985307 -44.177319 -41.385113 -18.584923 25.197826 -57.138876 19.803748 0.000000 0.000000 0.000000 5.023722 -0.639654 -1.518185 0.473892 26.553380 -6.376440 2.598875 -8.374991 6.830214 -21.295374 52.345409 11.976639 -98.676720 74.025740 91.673515 0.000000 0.000000 0.000000 
1.557478 27.885675 -6.091164 0.000000 0.000000 0.000000 9.400990 -54.927630 8.817318 -43.374911 10.257883 34.593890 46.036636 -16.298477 1.406407 -5.829435 7.694071 -28.533257 -0.925410 -3.647267 -0.757415 0.000000 0.000000 0.000000 7.927865 -52.896325 7.550939 -38.037501 -13.697025 -35.736158 45.903147 25.014332 -4.123320 -17.320678 -13.996598 32.719171 7.051258 6.903024 -19.750141 0.000000 0.000000 0.000000 6.826252 -46.005101 6.965282 10.784904 10.708643 -3.936963 6.018978 -1.355970 -2.712134 0.178098 -0.537467 0.010719 0.000000 0.000000 0.000000 4.089453 2.091451 -1.669254 6.567325 27.659770 -4.086012 -30.131089 20.008109 -14.701475 0.000000 0.000000 0.000000 6.856403 -1.128553 -1.961552 2.673719 -11.733392 -14.056593 -8.319810 -7.655505 0.066118 -44.225007 -36.073692 -12.926052 23.402412 -59.865946 17.452785 0.000000 0.000000 0.000000 4.749089 -0.588574 -1.214780 0.064185 24.675616 -7.340838 -2.227755 -7.607224 8.993733 -14.728367 58.399996 3.671447 -88.412475 74.282337 80.411762 0.000000 0.000000 0.000000 
1.575761 28.473728 -5.979918 0.000000 0.000000 0.000000 10.546345 -58.254533 9.257825 -40.195697 13.609407 36.075389 43.876698 -16.903485 1.104868 -6.525962 10.161280 -28.150476 -1.280791 -3.709975 -1.359134 0.000000 0.000000 0.000000 9.011904 -56.773523 7.959286 -37.847796 -11.996066 -33.463037 40.839238 24.241566 -2.468443 -13.641626 -11.849738 31.977235 7.143299 6.347134 -18.176679 0.000000 0.000000 0.000000 7.769505 -49.268951 7.056361 10.268400 9.082833 -4.645934 6.066343 -1.063546 -2.575912 0.236997 -0.348149 0.017443 0.000000 0.000000 0.000000 4.569725 2.160851 -1.368178 1.462285 26.045700 -2.902560 -33.569936 17.527543 -16.968512 0.000000 0.000000 0.000000 6.751515 -0.759966 -1.336584 2.554498 -11.251919 -10.943302 -9.277756 -7.844414 1.061634 -43.531934 -29.381155 -6.292621 22.361807 -61.606011 16.003062 0.000000 0.000000 0.000000 4.416001 -0.541817 -1.002963 -0.740553 22.777402 -8.117110 -6.328607 -8.245826 9.575422 -10.570579 63.100388 -2.136190 -90.935206 75.709013 83.862982 0.000000 0.000000 0.000000 
1.577285 29.086830 -5.820587 0.000000 0.000000 0.000000 11.986109 -61.640442 10.105658 -36.793068 17.342762 37.069957 41.417458 -17.621174 0.899430 -7.165918 12.570348 -28.028593 -1.293762 -3.783236 -1.929383 0.000000 0.000000 0.000000 10.307886 -60.797454 8.746925 -37.498818 -10.493844 -31.472392 35.644756 23.333513 -0.764272 -9.542911 -9.507258 31.752884 7.149410 6.116303 -17.034261 0.000000 0.000000 0.000000 8.387384 -52.296416 7.036786 9.838124 7.248368 -5.469074 6.141107 -0.728277 -2.586711 0.318466 -0.189763 -0.013143 0.000000 0.000000 0.000000 5.173938 2.312302 -1.236849 -3.842603 23.815811 -0.838016 -36.983108 14.517289 -19.030181 0.000000 0.000000 0.000000 6.670995 -0.345487 -1.038280 2.458517 -10.542096 -7.448098 -9.606762 -7.712260 2.221926 -42.305396 -22.845902 -0.244219 22.783091 -60.819829 16.022680 0.000000 0.000000 0.000000 4.245798 -0.379960 -0.876039 -2.033738 20.956981 -7.961607 -8.880813 -8.718411 8.867577 -9.269372 66.096410 -4.018258 -107.248423 77.842744 102.821203 0.000000 0.000000 0.000000 
1.546731 29.652771 -5.684141 0.000000 0.000000 0.000000 13.598352 -64.560703 11.305555 -33.633422 21.030465 37.663494 38.782678 -18.520056 0.743537 -7.704993 14.612693 -28.351239 -1.104328 -3.871531 -2.284461 0.000000 0.000000 0.000000 11.956351 -64.213402 9.981456 -37.071057 -9.118180 -29.880712 30.912897 22.504558 0.785480 -5.585595 -7.005787 32.191576 7.269488 6.235446 -16.467101 0.000000 0.000000 0.000000 8.749248 -54.916760 6.886986 9.509424 5.244314 -6.388994 6.162942 -0.294448 -2.661583 0.353464 0.024648 -0.068249 0.000000 0.000000 0.000000 5.669215 2.616813 -1.254219 -8.336506 21.225487 1.586513 -39.748446 11.522846 -20.508913 0.000000 0.000000 0.000000 6.580181 0.078783 -1.017197 2.338547 -9.460665 -3.977592 -9.874558 -7.676346 4.024027 -41.162767 -17.499365 4.164907 24.639709 -56.790605 17.357116 0.000000 0.000000 0.000000 4.221518 -0.016555 -0.744790 -3.607399 19.370082 -6.917950 -11.349339 -8.954545 6.746265 -10.942904 67.156455 -1.928145 -135.539968 78.127331 134.847100 0.000000 0.000000 0.000000 
